# xmcd CD Database Entry
#
# Track frame offsets:
# 150
# 11787
# 29156
# 39244
# 56149
# 64283
# 77769
# 89656
# 102503
# 117474
# 124018
# 137293
# 149023
# 166133
# 176274
# 184920
# 193614
#
# Disc length: 2742 seconds
#
# Revision: 1
# Processed by: cddbd v1.4PL0 Copyright (c) Steve Scherf et al.
# Submitted via: tcd 2.0b
#
DISCID=f70ab411
DTITLE=Неизвестный - Неизвестный
DYEAR=1900
DGENRE=
TTITLE0=Трек 1
TTITLE1=Трек 2
TTITLE2=Трек 3
TTITLE3=Трек 4
TTITLE4=Трек 5
TTITLE5=Трек 6
TTITLE6=Трек 7
TTITLE7=Трек 8
TTITLE8=Трек 9
TTITLE9=Трек 10
TTITLE10=Трек 11
TTITLE11=Трек 12
TTITLE12=Трек 13
TTITLE13=Трек 14
TTITLE14=Трек 15
TTITLE15=Трек 16
TTITLE16=Трек 17
EXTD=
EXTT0=
EXTT1=
EXTT2=
EXTT3=
EXTT4=
EXTT5=
EXTT6=
EXTT7=
EXTT8=
EXTT9=
EXTT10=
EXTT11=
EXTT12=
EXTT13=
EXTT14=
EXTT15=
EXTT16=
PLAYORDER=
